<svg xmlns="http://www.w3.org/2000/svg" width="430" height="430" fill="none" viewBox="0 0 430 430"><path fill="#4bb3fd" d="M215 47.5c-92.508 0-167.5 74.992-167.5 167.5 0 79.136 54.879 145.454 128.655 162.973v-1.434l52.742 3.056v2.337C314.903 374.868 382.5 302.828 382.5 215c0-92.508-74.992-167.5-167.5-167.5"/><path fill="#4bb3fd" d="M298.007 360.519c-15.208 4.542-31.323 6.981-48.007 6.981-92.508 0-167.5-74.992-167.5-167.5 0-62.305 34.018-116.664 84.493-145.519C97.881 75.121 47.5 139.177 47.5 215c0 92.508 74.992 167.5 167.5 167.5 30.203 0 58.538-7.993 83.007-21.981" opacity=".5" style="mix-blend-mode:multiply"/><mask id="_Pwg67zjLxa" width="336" height="336" x="47" y="47" maskUnits="userSpaceOnUse" style="mask-type:alpha"><circle cx="215" cy="215" r="167.5" fill="#fff"/></mask><g fill="#ebe6ef" mask="url(#_Pwg67zjLxa)"><path d="M277 110a3 3 0 0 1 3 3v49a3 3 0 0 1-3 3h-32c-8.284 0-15 6.716-15 15v40h51.072a3 3 0 0 1 2.895 3.789l-13.364 49a3 3 0 0 1-2.894 2.211H230v115h-55V275h-37a3 3 0 0 1-3-3v-49a3 3 0 0 1 3-3h37v-45c0-35.899 29.101-65 65-65z"/><path d="M205 390V275h-30v115zm-40-115v-55h-27a3 3 0 0 0-3 3v49a3 3 0 0 0 3 3zm10-55h30v-45c0-35.899 29.101-65 65-65h-30c-35.899 0-65 29.101-65 65z" opacity=".5" style="mix-blend-mode:multiply"/><path d="M230 381.838v-15.52a166.4 166.4 0 0 1-55-16.506v27.882a168 168 0 0 0 40 4.806c5.055 0 10.059-.224 15-.662" opacity=".5" style="mix-blend-mode:multiply"/></g></svg>